<?xml version="1.0" encoding="UTF-8"?>
<svg xmlns="http://www.w3.org/2000/svg" xmlns:xlink="http://www.w3.org/1999/xlink" width="49pt" height="40pt" viewBox="0 0 49 40" version="1.1">
<g id="surface1">
<path style=" stroke:none;fill-rule:nonzero;fill:rgb(100%,100%,100%);fill-opacity:1;" d="M 39.632812 29.429688 C 37.691406 31.449219 34.976562 32.589844 32.035156 32.59375 C 29.089844 32.601562 26.371094 31.46875 24.429688 29.453125 C 23.480469 28.472656 22.785156 27.347656 22.351562 26.140625 C 21.929688 24.960938 21.769531 23.695312 21.875 22.441406 C 21.980469 21.222656 22.335938 20.03125 22.917969 18.960938 C 23.484375 17.910156 24.265625 16.960938 25.230469 16.160156 C 27.117188 14.589844 29.519531 13.742188 32.035156 13.738281 C 34.550781 13.734375 36.949219 14.578125 38.835938 16.140625 C 39.796875 16.941406 40.578125 17.882812 41.144531 18.929688 C 41.730469 20.003906 42.085938 21.191406 42.1875 22.414062 C 42.296875 23.667969 42.132812 24.929688 41.710938 26.113281 C 41.277344 27.316406 40.582031 28.445312 39.632812 29.429688 Z M 39.632812 29.429688 "/>
<path style=" stroke:none;fill-rule:nonzero;fill:rgb(0%,32.54902%,52.156863%);fill-opacity:1;" d="M 25.757812 22.570312 C 25.84375 20.9375 26.628906 19.5 27.8125 18.476562 C 28.976562 17.472656 30.539062 16.863281 32.242188 16.863281 C 33.949219 16.867188 35.511719 17.476562 36.671875 18.476562 C 37.855469 19.5 38.644531 20.9375 38.734375 22.570312 C 38.824219 24.25 38.160156 25.8125 37 26.96875 C 35.816406 28.144531 34.128906 28.882812 32.242188 28.882812 C 30.355469 28.882812 28.667969 28.144531 27.484375 26.96875 C 26.324219 25.8125 25.664062 24.25 25.757812 22.570312 Z M 25.757812 22.570312 "/>
<path style=" stroke:none;fill-rule:nonzero;fill:rgb(100%,43.921569%,12.941176%);fill-opacity:1;" d="M 15.417969 25.878906 C 15.433594 26.515625 15.632812 27.757812 15.929688 28.726562 C 16.5625 30.78125 17.632812 32.683594 19.121094 34.359375 C 20.648438 36.078125 22.527344 37.460938 24.703125 38.441406 C 26.988281 39.472656 29.460938 40 32.03125 39.992188 C 34.601562 39.988281 37.074219 39.453125 39.359375 38.414062 C 41.53125 37.421875 43.410156 36.035156 44.9375 34.3125 C 46.425781 32.628906 47.492188 30.726562 48.121094 28.671875 C 48.4375 27.648438 48.640625 26.59375 48.722656 25.523438 C 48.800781 24.484375 48.765625 23.433594 48.625 22.398438 C 48.339844 20.367188 47.652344 18.460938 46.589844 16.722656 C 45.617188 15.128906 44.367188 13.730469 42.878906 12.550781 L 27.867188 0.800781 C 27.855469 0.792969 27.84375 0.78125 27.832031 0.769531 C 26.84375 0 25.1875 0.00390625 24.105469 0.773438 C 23.007812 1.558594 22.882812 2.847656 23.855469 3.664062 L 23.851562 3.667969 L 30.113281 8.859375 L 11.023438 8.878906 L 11 8.878906 C 9.421875 8.882812 7.90625 9.9375 7.605469 11.269531 C 7.296875 12.628906 8.371094 13.753906 10.011719 13.761719 L 10.007812 13.769531 L 19.683594 13.75 L 2.417969 27.257812 C 2.398438 27.277344 2.375 27.292969 2.355469 27.308594 C 0.726562 28.578125 0.199219 30.695312 1.222656 32.03125 C 2.265625 33.390625 4.476562 33.394531 6.125 32.039062 L 15.546875 24.179688 C 15.546875 24.179688 15.410156 25.238281 15.417969 25.878906 Z M 39.632812 29.429688 C 37.691406 31.449219 34.976562 32.589844 32.035156 32.59375 C 29.089844 32.601562 26.371094 31.46875 24.429688 29.453125 C 23.480469 28.472656 22.785156 27.347656 22.351562 26.140625 C 21.929688 24.960938 21.769531 23.695312 21.875 22.441406 C 21.980469 21.222656 22.335938 20.03125 22.917969 18.960938 C 23.484375 17.910156 24.265625 16.960938 25.230469 16.160156 C 27.117188 14.589844 29.519531 13.742188 32.035156 13.738281 C 34.550781 13.734375 36.949219 14.578125 38.835938 16.140625 C 39.796875 16.941406 40.578125 17.882812 41.144531 18.929688 C 41.730469 20.003906 42.085938 21.191406 42.1875 22.414062 C 42.296875 23.667969 42.132812 24.929688 41.710938 26.113281 C 41.277344 27.316406 40.582031 28.445312 39.632812 29.429688 Z M 39.632812 29.429688 "/>
</g>
</svg>
