<?xml version="1.0" encoding="UTF-8"?>
<svg xmlns="http://www.w3.org/2000/svg" xmlns:xlink="http://www.w3.org/1999/xlink" width="50pt" height="58pt" viewBox="0 0 50 58" version="1.1">
<g id="surface1">
<path style=" stroke:none;fill-rule:nonzero;fill:rgb(37.254902%,37.254902%,37.254902%);fill-opacity:1;" d="M 45.433594 0.164062 L 4.53125 0.164062 C 1.234375 0.164062 0 1.386719 0 4.683594 L 0 44.472656 C 0 44.851562 0.0195312 45.191406 0.0546875 45.515625 C 0.128906 46.238281 0.148438 46.941406 0.816406 47.734375 C 0.890625 47.804688 1.578125 48.328125 1.578125 48.328125 C 1.941406 48.507812 2.195312 48.632812 2.609375 48.8125 L 22.734375 57.207031 C 23.785156 57.675781 24.222656 57.875 24.980469 57.855469 C 25.742188 57.875 26.175781 57.695312 27.226562 57.207031 L 47.355469 48.8125 C 47.769531 48.652344 48.023438 48.507812 48.386719 48.328125 C 48.386719 48.328125 49.074219 47.824219 49.148438 47.734375 C 49.816406 46.941406 49.835938 46.238281 49.90625 45.515625 C 49.945312 45.191406 49.960938 44.851562 49.960938 44.472656 L 49.960938 4.683594 C 49.960938 1.386719 48.75 0.164062 45.433594 0.164062 "/>
<path style=" stroke:none;fill-rule:nonzero;fill:rgb(100%,100%,100%);fill-opacity:1;" d="M 42.679688 40.167969 L 42.660156 40.257812 L 42.644531 40.367188 L 42.625 40.457031 L 42.589844 40.546875 L 42.570312 40.636719 L 42.5 40.816406 L 42.460938 40.886719 L 42.425781 40.976562 L 42.371094 41.050781 L 42.316406 41.121094 L 42.261719 41.195312 L 42.210938 41.265625 L 42.15625 41.339844 L 42.082031 41.410156 L 41.957031 41.535156 L 41.808594 41.644531 L 41.738281 41.679688 L 41.664062 41.734375 L 41.574219 41.789062 L 41.484375 41.824219 L 41.394531 41.878906 L 41.304688 41.914062 L 41.210938 41.949219 L 41.121094 41.988281 L 41.121094 41.96875 L 41.03125 42.003906 L 40.941406 42.023438 L 40.777344 42.058594 L 40.6875 42.078125 L 40.597656 42.09375 L 40.507812 42.113281 L 40.414062 42.132812 L 40.308594 42.148438 L 40.214844 42.167969 L 39.855469 42.167969 L 39.761719 42.148438 L 39.65625 42.148438 L 39.5625 42.132812 L 39.472656 42.113281 L 39.363281 42.09375 L 39.273438 42.078125 L 39.09375 42.039062 L 39.003906 42.023438 L 38.914062 42.003906 L 38.820312 41.988281 L 38.730469 41.949219 L 38.640625 41.933594 L 38.550781 41.898438 L 38.460938 41.859375 L 38.367188 41.824219 L 38.1875 41.753906 L 38.097656 41.714844 L 38.007812 41.679688 L 37.914062 41.644531 L 37.734375 41.574219 L 37.644531 41.519531 L 37.570312 41.464844 L 37.480469 41.410156 L 37.410156 41.355469 L 37.335938 41.300781 L 37.265625 41.25 L 37.117188 41.140625 L 37.046875 41.085938 L 36.972656 41.03125 L 36.902344 40.960938 L 36.957031 40.886719 L 37.027344 40.816406 L 37.082031 40.742188 L 37.15625 40.671875 L 37.210938 40.601562 L 37.265625 40.527344 L 37.335938 40.457031 L 37.390625 40.382812 L 37.464844 40.3125 L 37.515625 40.238281 L 37.589844 40.167969 L 37.644531 40.09375 L 37.699219 40.023438 L 37.769531 39.953125 L 37.824219 39.878906 L 37.898438 39.808594 L 37.953125 39.734375 L 38.023438 39.789062 L 38.113281 39.84375 L 38.1875 39.898438 L 38.277344 39.953125 L 38.351562 40.003906 L 38.441406 40.058594 L 38.511719 40.113281 L 38.605469 40.148438 L 38.675781 40.203125 L 38.765625 40.238281 L 38.859375 40.277344 L 39.21875 40.417969 L 39.3125 40.457031 L 39.402344 40.492188 L 39.492188 40.511719 L 39.671875 40.546875 L 39.78125 40.5625 L 39.871094 40.582031 L 39.960938 40.582031 L 40.070312 40.601562 L 40.269531 40.601562 L 40.378906 40.582031 L 40.46875 40.5625 L 40.5625 40.546875 L 40.652344 40.527344 L 40.722656 40.492188 L 40.796875 40.457031 L 40.867188 40.402344 L 40.921875 40.328125 L 40.960938 40.257812 L 40.996094 40.167969 L 41.011719 40.078125 L 41.011719 40.058594 L 40.996094 39.953125 L 40.960938 39.863281 L 40.90625 39.789062 L 40.832031 39.734375 L 40.761719 39.679688 L 40.6875 39.644531 L 40.507812 39.574219 L 40.398438 39.519531 L 40.324219 39.5 L 40.253906 39.484375 L 40.160156 39.445312 L 40.070312 39.429688 L 39.980469 39.394531 L 39.890625 39.375 L 39.78125 39.339844 L 39.691406 39.320312 L 39.582031 39.285156 L 39.492188 39.265625 L 39.402344 39.230469 L 39.3125 39.214844 L 39.21875 39.175781 L 39.128906 39.140625 L 39.039062 39.121094 L 38.859375 39.050781 L 38.765625 39.015625 L 38.660156 38.980469 L 38.566406 38.941406 L 38.386719 38.871094 L 38.207031 38.761719 L 38.132812 38.707031 L 38.042969 38.65625 L 37.96875 38.601562 L 37.898438 38.546875 L 37.824219 38.492188 L 37.679688 38.347656 L 37.625 38.277344 L 37.570312 38.203125 L 37.515625 38.132812 L 37.464844 38.058594 L 37.410156 37.96875 L 37.371094 37.898438 L 37.335938 37.824219 L 37.316406 37.734375 L 37.28125 37.664062 L 37.265625 37.574219 L 37.226562 37.394531 L 37.210938 37.304688 L 37.191406 37.195312 L 37.191406 36.980469 L 37.210938 36.890625 L 37.226562 36.800781 L 37.265625 36.621094 L 37.28125 36.527344 L 37.316406 36.4375 L 37.335938 36.347656 L 37.371094 36.257812 L 37.410156 36.167969 L 37.445312 36.078125 L 37.554688 35.898438 L 37.609375 35.828125 L 37.664062 35.753906 L 37.953125 35.464844 L 38.023438 35.414062 L 38.097656 35.359375 L 38.167969 35.304688 L 38.242188 35.25 L 38.332031 35.195312 L 38.421875 35.160156 L 38.511719 35.105469 L 38.605469 35.070312 L 38.785156 35 L 38.875 34.960938 L 38.949219 34.945312 L 39.128906 34.90625 L 39.21875 34.890625 L 39.3125 34.871094 L 39.402344 34.855469 L 39.582031 34.816406 L 39.671875 34.800781 L 40.070312 34.800781 L 40.179688 34.816406 L 40.289062 34.835938 L 40.378906 34.835938 L 40.488281 34.855469 L 40.578125 34.871094 L 40.6875 34.890625 L 40.777344 34.90625 L 40.867188 34.925781 L 40.960938 34.945312 L 41.050781 34.960938 L 41.140625 34.980469 L 41.320312 35.050781 L 41.410156 35.070312 L 41.503906 35.105469 L 41.59375 35.140625 L 41.683594 35.179688 L 41.863281 35.25 L 41.957031 35.304688 L 42.027344 35.339844 L 42.117188 35.394531 L 42.210938 35.449219 L 42.28125 35.503906 L 42.371094 35.554688 L 42.445312 35.609375 L 42.515625 35.664062 L 42.589844 35.71875 L 42.660156 35.773438 L 42.609375 35.84375 L 42.554688 35.917969 L 42.5 35.988281 L 42.445312 36.0625 L 42.390625 36.152344 L 42.335938 36.222656 L 42.28125 36.296875 L 42.171875 36.4375 L 42.117188 36.511719 L 42.0625 36.582031 L 42.007812 36.65625 L 41.957031 36.746094 L 41.902344 36.816406 L 41.847656 36.890625 L 41.664062 37.285156 L 41.609375 37.359375 L 41.539062 37.304688 L 41.449219 37.25 L 41.375 37.195312 L 41.304688 37.140625 L 41.210938 37.105469 L 41.140625 37.050781 L 41.050781 37.015625 L 40.976562 36.980469 L 40.886719 36.945312 L 40.8125 36.90625 L 40.722656 36.871094 L 40.652344 36.835938 L 40.542969 36.800781 L 40.453125 36.761719 L 40.359375 36.726562 L 40.269531 36.710938 L 40.214844 36.746094 L 40.125 36.726562 L 40.035156 36.710938 L 39.855469 36.671875 L 39.65625 36.671875 L 39.546875 36.691406 L 39.457031 36.710938 L 39.363281 36.726562 L 39.292969 36.761719 L 39.21875 36.800781 L 39.128906 36.871094 L 39.074219 36.960938 L 39.039062 37.050781 L 39.019531 37.140625 L 39.019531 37.160156 L 39.039062 37.285156 L 39.074219 37.394531 L 39.113281 37.449219 L 39.183594 37.519531 L 39.273438 37.574219 L 39.347656 37.628906 L 39.4375 37.664062 L 39.65625 37.734375 L 39.726562 37.753906 L 39.800781 37.789062 L 39.890625 37.808594 L 39.980469 37.84375 L 40.070312 37.863281 L 40.398438 37.96875 L 40.507812 37.988281 L 40.597656 38.023438 L 40.707031 38.058594 L 40.796875 38.078125 L 40.976562 38.148438 L 41.066406 38.1875 L 41.160156 38.222656 L 41.25 38.257812 L 41.339844 38.277344 L 41.449219 38.3125 L 41.539062 38.367188 L 41.628906 38.402344 L 41.808594 38.511719 L 41.902344 38.566406 L 41.972656 38.617188 L 42.046875 38.671875 L 42.117188 38.726562 L 42.191406 38.796875 L 42.261719 38.871094 L 42.335938 38.941406 L 42.410156 39.015625 L 42.460938 39.085938 L 42.515625 39.175781 L 42.570312 39.25 L 42.625 39.339844 L 42.660156 39.410156 L 42.699219 39.5 L 42.714844 39.589844 L 42.734375 39.679688 L 42.769531 39.863281 L 42.789062 39.953125 L 42.808594 40.058594 L 42.808594 40.277344 Z M 36.25 42.003906 L 30.976562 42.003906 L 30.976562 35.324219 L 36.285156 35.324219 L 36.285156 36.835938 L 32.734375 36.835938 L 32.734375 37.933594 L 35.921875 37.933594 L 35.921875 39.355469 L 32.734375 39.355469 L 32.734375 40.492188 L 36.339844 40.492188 L 36.339844 42.003906 Z M 29.527344 42.003906 L 27.84375 42.003906 L 27.84375 38.058594 L 27.789062 38.132812 L 27.734375 38.222656 L 27.679688 38.292969 L 27.625 38.367188 L 27.574219 38.457031 L 27.519531 38.527344 L 27.464844 38.601562 L 27.410156 38.691406 L 27.355469 38.761719 L 27.300781 38.835938 L 27.246094 38.90625 L 27.191406 38.996094 L 27.136719 39.070312 L 27.082031 39.140625 L 27.027344 39.230469 L 26.972656 39.304688 L 26.921875 39.375 L 26.867188 39.464844 L 26.828125 39.539062 L 26.773438 39.609375 L 26.722656 39.699219 L 26.667969 39.769531 L 26.613281 39.84375 L 26.558594 39.933594 L 26.503906 40.003906 L 26.46875 40.078125 L 26.414062 40.148438 L 26.359375 40.238281 L 26.304688 40.3125 L 26.25 40.382812 L 26.214844 40.472656 L 26.160156 40.546875 L 26.105469 40.617188 L 26.050781 40.707031 L 25.996094 40.78125 L 25.960938 40.78125 L 25.90625 40.691406 L 25.851562 40.617188 L 25.796875 40.527344 L 25.742188 40.457031 L 25.6875 40.367188 L 25.632812 40.292969 L 25.578125 40.203125 L 25.523438 40.132812 L 25.472656 40.042969 L 25.433594 39.96875 L 25.378906 39.878906 L 25.324219 39.808594 L 25.273438 39.71875 L 25.363281 39.628906 L 25.308594 39.539062 L 25.253906 39.464844 L 25.199219 39.375 L 25.144531 39.304688 L 25.089844 39.214844 L 25.035156 39.140625 L 25 39.085938 L 24.945312 39.015625 L 24.890625 38.925781 L 24.835938 38.851562 L 24.78125 38.761719 L 24.726562 38.691406 L 24.675781 38.601562 L 24.636719 38.546875 L 24.582031 38.457031 L 24.527344 38.382812 L 24.476562 38.292969 L 24.421875 38.222656 L 24.367188 38.132812 L 24.3125 38.058594 L 24.3125 41.988281 L 22.574219 41.988281 L 22.574219 35.304688 L 24.457031 35.304688 L 24.511719 35.375 L 24.566406 35.464844 L 24.621094 35.539062 L 24.675781 35.628906 L 24.726562 35.699219 L 24.78125 35.789062 L 24.835938 35.863281 L 24.890625 35.953125 L 24.945312 36.023438 L 25 36.097656 L 25.054688 36.1875 L 25.109375 36.257812 L 25.164062 36.347656 L 25.21875 36.421875 L 25.273438 36.511719 L 25.324219 36.582031 L 25.378906 36.65625 L 25.433594 36.746094 L 25.488281 36.816406 L 25.542969 36.90625 L 25.597656 36.980469 L 25.652344 37.070312 L 25.707031 37.140625 L 25.742188 37.230469 L 25.796875 37.304688 L 25.832031 37.375 L 25.886719 37.464844 L 25.941406 37.539062 L 25.996094 37.628906 L 26.050781 37.699219 L 26.085938 37.789062 L 26.140625 37.863281 L 26.195312 37.953125 L 26.25 38.023438 L 26.304688 37.953125 L 26.359375 37.863281 L 26.414062 37.789062 L 26.46875 37.699219 L 26.523438 37.628906 L 26.574219 37.539062 L 26.628906 37.464844 L 26.683594 37.375 L 26.738281 37.304688 L 26.773438 37.230469 L 26.828125 37.140625 L 26.882812 37.070312 L 26.9375 36.980469 L 26.992188 36.90625 L 27.046875 36.816406 L 27.101562 36.746094 L 27.15625 36.65625 L 27.210938 36.582031 L 27.265625 36.511719 L 27.320312 36.421875 L 27.371094 36.347656 L 27.425781 36.257812 L 27.480469 36.1875 L 27.535156 36.097656 L 27.574219 36.023438 L 27.625 35.953125 L 27.679688 35.863281 L 27.734375 35.789062 L 27.789062 35.699219 L 27.84375 35.628906 L 27.898438 35.539062 L 27.953125 35.464844 L 28.007812 35.375 L 28.0625 35.304688 L 29.945312 35.304688 L 29.945312 41.988281 Z M 18.878906 39.25 L 18.839844 39.160156 L 18.769531 38.980469 L 18.730469 38.890625 L 18.695312 38.796875 L 18.625 38.617188 L 18.585938 38.527344 L 18.480469 38.257812 L 18.441406 38.167969 L 18.371094 37.988281 L 18.332031 37.898438 L 18.226562 37.628906 L 18.1875 37.539062 L 18.082031 37.269531 L 18.042969 37.359375 L 17.972656 37.539062 L 17.933594 37.628906 L 17.828125 37.898438 L 17.789062 37.988281 L 17.683594 38.257812 L 17.644531 38.347656 L 17.574219 38.527344 L 17.535156 38.617188 L 17.464844 38.796875 L 17.429688 38.890625 L 17.390625 38.980469 L 17.320312 39.160156 L 17.28125 39.25 L 17.246094 39.339844 L 18.804688 39.339844 Z M 21.757812 42.003906 L 19.964844 42.003906 L 19.929688 41.914062 L 19.890625 41.824219 L 19.820312 41.644531 L 19.78125 41.554688 L 19.675781 41.285156 L 19.636719 41.195312 L 19.53125 40.925781 L 19.492188 40.835938 L 19.457031 40.742188 L 19.421875 40.652344 L 16.8125 40.652344 L 16.777344 40.742188 L 16.738281 40.835938 L 16.632812 41.105469 L 16.558594 41.265625 L 16.523438 41.355469 L 16.484375 41.445312 L 16.378906 41.714844 L 16.339844 41.808594 L 16.269531 41.988281 L 14.457031 41.988281 L 14.492188 41.898438 L 14.566406 41.734375 L 14.636719 41.554688 L 14.710938 41.390625 L 14.746094 41.300781 L 14.785156 41.210938 L 14.820312 41.121094 L 14.855469 41.066406 L 14.890625 40.976562 L 14.929688 40.886719 L 15.035156 40.617188 L 15.074219 40.527344 L 15.144531 40.347656 L 15.183594 40.257812 L 15.253906 40.078125 L 15.328125 39.914062 L 15.433594 39.644531 L 15.472656 39.554688 L 15.542969 39.375 L 15.582031 39.285156 L 15.6875 39.015625 L 15.726562 38.925781 L 15.832031 38.65625 L 15.871094 38.566406 L 15.90625 38.472656 L 15.941406 38.382812 L 15.980469 38.292969 L 16.085938 38.023438 L 16.125 37.933594 L 16.195312 37.753906 L 16.234375 37.664062 L 16.339844 37.394531 L 16.378906 37.304688 L 16.484375 37.035156 L 16.558594 36.871094 L 16.59375 36.78125 L 16.632812 36.691406 L 16.738281 36.421875 L 16.777344 36.332031 L 16.882812 36.0625 L 16.921875 35.972656 L 16.9375 35.878906 L 16.976562 35.789062 L 17.082031 35.519531 L 17.121094 35.429688 L 17.191406 35.25 L 17.230469 35.160156 L 17.300781 35 L 17.335938 34.90625 L 19.039062 34.90625 L 19.078125 35 L 19.183594 35.269531 L 19.222656 35.359375 L 19.292969 35.539062 L 19.332031 35.628906 L 19.4375 35.898438 L 19.476562 35.988281 L 19.582031 36.257812 L 19.621094 36.347656 L 19.691406 36.527344 L 19.730469 36.621094 L 19.835938 36.890625 L 19.875 36.980469 L 19.980469 37.25 L 20.019531 37.339844 L 20.089844 37.519531 L 20.128906 37.609375 L 20.199219 37.773438 L 20.234375 37.863281 L 20.273438 37.953125 L 20.378906 38.222656 L 20.417969 38.3125 L 20.488281 38.492188 L 20.527344 38.582031 L 20.632812 38.851562 L 20.671875 38.941406 L 20.742188 39.121094 L 20.777344 39.214844 L 20.816406 39.304688 L 20.886719 39.484375 L 20.925781 39.574219 L 21.03125 39.84375 L 21.070312 39.933594 L 21.140625 40.113281 L 21.179688 40.203125 L 21.285156 40.472656 L 21.324219 40.5625 L 21.394531 40.742188 L 21.429688 40.835938 L 21.46875 40.925781 L 21.539062 41.105469 L 21.578125 41.195312 L 21.683594 41.464844 L 21.722656 41.554688 L 21.828125 41.824219 L 21.867188 41.914062 L 21.9375 42.078125 Z M 13.714844 41.140625 L 13.640625 41.195312 L 13.570312 41.25 L 13.496094 41.300781 L 13.425781 41.355469 L 13.351562 41.410156 L 13.28125 41.464844 L 13.207031 41.519531 L 13.117188 41.574219 L 13.027344 41.625 L 12.9375 41.679688 L 12.84375 41.714844 L 12.753906 41.769531 L 12.664062 41.808594 L 12.484375 41.878906 L 12.390625 41.914062 L 12.300781 41.949219 L 12.210938 41.988281 L 12.03125 42.058594 L 11.9375 42.09375 L 11.757812 42.132812 L 11.667969 42.148438 L 11.578125 42.167969 L 11.488281 42.183594 L 11.378906 42.203125 L 11.289062 42.222656 L 11.179688 42.238281 L 11.085938 42.257812 L 10.980469 42.273438 L 10.6875 42.273438 L 10.597656 42.257812 L 10.488281 42.238281 L 10.398438 42.222656 L 10.21875 42.183594 L 10.128906 42.167969 L 10.039062 42.148438 L 9.945312 42.132812 L 9.765625 42.09375 L 9.675781 42.078125 L 9.585938 42.039062 L 9.492188 42.003906 L 9.222656 41.898438 L 9.132812 41.859375 L 9.039062 41.824219 L 8.949219 41.769531 L 8.878906 41.734375 L 8.789062 41.679688 L 8.714844 41.625 L 8.640625 41.574219 L 8.570312 41.519531 L 8.496094 41.464844 L 8.425781 41.410156 L 8.351562 41.355469 L 8.28125 41.300781 L 8.207031 41.230469 L 8.136719 41.175781 L 8.0625 41.105469 L 7.992188 41.03125 L 7.9375 40.960938 L 7.882812 40.886719 L 7.828125 40.816406 L 7.773438 40.742188 L 7.664062 40.601562 L 7.628906 40.527344 L 7.574219 40.4375 L 7.519531 40.367188 L 7.484375 40.277344 L 7.445312 40.1875 L 7.410156 40.09375 L 7.375 40.003906 L 7.339844 39.933594 L 7.300781 39.84375 L 7.285156 39.753906 L 7.246094 39.664062 L 7.230469 39.574219 L 7.191406 39.484375 L 7.175781 39.394531 L 7.175781 39.304688 L 7.15625 39.214844 L 7.15625 39.121094 L 7.140625 39.03125 L 7.140625 38.257812 L 7.15625 38.148438 L 7.175781 38.058594 L 7.191406 37.96875 L 7.210938 37.878906 L 7.246094 37.789062 L 7.265625 37.699219 L 7.300781 37.609375 L 7.339844 37.519531 L 7.445312 37.25 L 7.484375 37.160156 L 7.554688 36.980469 L 7.609375 36.890625 L 7.664062 36.816406 L 7.699219 36.746094 L 7.753906 36.671875 L 7.808594 36.601562 L 7.863281 36.527344 L 7.972656 36.386719 L 8.027344 36.3125 L 8.097656 36.242188 L 8.152344 36.167969 L 8.226562 36.097656 L 8.296875 36.023438 L 8.371094 35.972656 L 8.441406 35.898438 L 8.589844 35.789062 L 8.660156 35.738281 L 8.734375 35.683594 L 8.804688 35.628906 L 8.878906 35.574219 L 9.058594 35.464844 L 9.148438 35.414062 L 9.238281 35.375 L 9.332031 35.339844 L 9.421875 35.285156 L 9.492188 35.25 L 9.585938 35.214844 L 9.675781 35.179688 L 9.765625 35.160156 L 9.855469 35.125 L 9.945312 35.105469 L 10.039062 35.070312 L 10.128906 35.050781 L 10.21875 35.035156 L 10.308594 35.015625 L 10.398438 35 L 10.488281 34.980469 L 10.582031 34.960938 L 10.671875 34.945312 L 11.050781 34.945312 L 11.160156 34.960938 L 11.269531 34.980469 L 11.359375 34.980469 L 11.449219 35 L 11.558594 35.015625 L 11.648438 35.035156 L 11.738281 35.050781 L 11.832031 35.070312 L 11.921875 35.089844 L 12.011719 35.105469 L 12.101562 35.125 L 12.191406 35.160156 L 12.285156 35.179688 L 12.355469 35.214844 L 12.445312 35.25 L 12.609375 35.324219 L 12.699219 35.359375 L 12.789062 35.414062 L 12.882812 35.449219 L 12.953125 35.503906 L 13.042969 35.554688 L 13.117188 35.609375 L 13.207031 35.664062 L 13.28125 35.71875 L 13.351562 35.773438 L 13.425781 35.828125 L 13.496094 35.878906 L 13.570312 35.953125 L 13.640625 36.007812 L 13.585938 36.078125 L 13.515625 36.152344 L 13.460938 36.222656 L 13.386719 36.296875 L 13.335938 36.367188 L 13.28125 36.4375 L 13.207031 36.511719 L 13.152344 36.582031 L 13.097656 36.65625 L 13.027344 36.726562 L 12.972656 36.800781 L 12.898438 36.871094 L 12.84375 36.945312 L 12.789062 37.015625 L 12.71875 37.085938 L 12.664062 37.160156 L 12.589844 37.230469 L 12.535156 37.304688 L 12.464844 37.25 L 12.390625 37.175781 L 12.320312 37.125 L 12.246094 37.070312 L 12.175781 37.015625 L 12.101562 36.960938 L 12.03125 36.90625 L 11.9375 36.851562 L 11.867188 36.816406 L 11.792969 36.78125 L 11.722656 36.746094 L 11.632812 36.710938 L 11.539062 36.671875 L 11.449219 36.65625 L 11.359375 36.636719 L 11.269531 36.621094 L 11.179688 36.601562 L 11.070312 36.582031 L 10.960938 36.566406 L 10.761719 36.566406 L 10.671875 36.582031 L 10.582031 36.601562 L 10.488281 36.621094 L 10.398438 36.636719 L 10.308594 36.671875 L 10.21875 36.710938 L 10.144531 36.925781 L 10.054688 36.960938 L 9.984375 37.015625 L 9.910156 37.070312 L 9.839844 37.125 L 9.765625 37.175781 L 9.691406 37.230469 L 9.621094 37.285156 L 9.566406 37.359375 L 9.492188 37.429688 L 9.4375 37.5 L 9.386719 37.574219 L 9.332031 37.644531 L 9.292969 37.734375 L 9.238281 37.808594 L 9.132812 38.078125 L 9.09375 38.167969 L 9.078125 38.257812 L 9.058594 38.347656 L 9.039062 38.457031 L 9.039062 39.121094 L 9.058594 39.214844 L 9.078125 39.304688 L 9.09375 39.394531 L 9.132812 39.484375 L 9.238281 39.445312 L 9.277344 39.539062 L 9.3125 39.628906 L 9.367188 39.71875 L 9.457031 39.863281 L 9.566406 40.003906 L 9.640625 40.078125 L 9.691406 40.148438 L 9.839844 40.257812 L 9.910156 40.3125 L 9.984375 40.367188 L 10.054688 40.417969 L 10.144531 40.457031 L 10.238281 40.492188 L 10.417969 40.5625 L 10.507812 40.601562 L 10.597656 40.617188 L 10.6875 40.636719 L 10.78125 40.652344 L 10.886719 40.671875 L 11.050781 40.671875 L 11.160156 40.652344 L 11.269531 40.636719 L 11.359375 40.617188 L 11.449219 40.601562 L 11.539062 40.582031 L 11.632812 40.5625 L 11.722656 40.546875 L 11.8125 40.511719 L 11.886719 40.472656 L 11.976562 40.4375 L 12.046875 40.402344 L 12.121094 40.347656 L 12.121094 39.445312 L 10.78125 39.445312 L 10.78125 38.113281 L 13.769531 38.113281 L 13.769531 41.105469 Z M 10.761719 20.210938 L 14.746094 20.210938 L 14.746094 17.148438 L 10.761719 17.148438 L 10.761719 10.898438 L 14.910156 10.898438 L 14.910156 7.835938 L 7.375 7.835938 L 7.375 29.9375 L 14.964844 29.9375 L 14.964844 26.875 L 10.761719 26.875 L 10.761719 20.210938 M 39.273438 20.875 L 39.273438 25.867188 C 39.273438 26.75 38.859375 27.164062 38.007812 27.164062 L 37.371094 27.164062 C 36.484375 27.164062 36.066406 26.75 36.066406 25.867188 L 36.066406 11.90625 C 36.066406 11.023438 36.484375 10.609375 37.371094 10.609375 L 37.933594 10.609375 C 38.785156 10.609375 39.203125 11.023438 39.203125 11.90625 L 39.203125 16.230469 L 42.515625 16.230469 L 42.515625 11.707031 C 42.515625 8.96875 41.195312 7.636719 38.441406 7.636719 L 36.792969 7.636719 C 34.039062 7.636719 32.679688 8.988281 32.679688 11.742188 L 32.679688 26.011719 C 32.679688 28.765625 34.039062 30.117188 36.792969 30.117188 L 38.460938 30.117188 C 41.210938 30.117188 42.570312 28.765625 42.570312 26.011719 L 42.570312 20.859375 L 39.273438 20.859375 M 27.535156 7.835938 L 30.921875 7.835938 L 30.921875 29.9375 L 27.535156 29.9375 Z M 22.628906 17.652344 C 22.628906 18.535156 22.210938 18.949219 21.359375 18.949219 L 19.964844 18.949219 L 19.964844 10.808594 L 21.359375 10.808594 C 22.210938 10.808594 22.628906 11.222656 22.628906 12.105469 Z M 21.902344 7.835938 L 16.59375 7.835938 L 16.59375 29.9375 L 19.980469 29.9375 L 19.980469 21.921875 L 21.902344 21.921875 C 24.65625 21.921875 26.015625 20.570312 26.015625 17.8125 L 26.015625 11.941406 C 26.015625 9.1875 24.65625 7.835938 21.902344 7.835938 Z M 15.34375 49.914062 L 34.710938 49.914062 L 24.835938 53.15625 L 15.34375 49.914062 "/>
</g>
</svg>
