<?xml version="1.0" encoding="UTF-8"?>
<svg xmlns="http://www.w3.org/2000/svg" xmlns:xlink="http://www.w3.org/1999/xlink" width="50pt" height="42pt" viewBox="0 0 50 42" version="1.1">
<g id="surface1">
<path style=" stroke:none;fill-rule:nonzero;fill:rgb(4.313725%,23.921569%,56.862745%);fill-opacity:1;" d="M 40.996094 20.542969 C 40.996094 30.664062 32.828125 38.867188 22.75 38.867188 C 12.671875 38.867188 4.503906 30.664062 4.503906 20.542969 C 4.503906 10.421875 12.671875 2.21875 22.75 2.21875 C 32.828125 2.21875 40.996094 10.421875 40.996094 20.542969 Z M 40.996094 20.542969 "/>
<path style=" stroke:none;fill-rule:nonzero;fill:rgb(100%,100%,100%);fill-opacity:1;" d="M 21.875 5.738281 C 21.875 5.851562 21.785156 5.945312 21.671875 5.945312 C 21.558594 5.945312 21.46875 5.851562 21.46875 5.738281 C 21.46875 5.625 21.558594 5.53125 21.671875 5.53125 C 21.785156 5.53125 21.875 5.625 21.875 5.738281 Z M 21.875 5.738281 "/>
<path style=" stroke:none;fill-rule:nonzero;fill:rgb(100%,100%,100%);fill-opacity:1;" d="M 23.976562 6.011719 C 23.976562 6.125 23.886719 6.21875 23.773438 6.21875 C 23.660156 6.21875 23.566406 6.125 23.566406 6.011719 C 23.566406 5.898438 23.660156 5.808594 23.773438 5.808594 C 23.886719 5.808594 23.976562 5.898438 23.976562 6.011719 Z M 23.976562 6.011719 "/>
<path style=" stroke:none;fill-rule:nonzero;fill:rgb(100%,100%,100%);fill-opacity:1;" d="M 26.730469 9.738281 C 26.730469 9.851562 26.640625 9.941406 26.527344 9.941406 C 26.414062 9.941406 26.324219 9.851562 26.324219 9.738281 C 26.324219 9.625 26.414062 9.53125 26.527344 9.53125 C 26.640625 9.53125 26.730469 9.625 26.730469 9.738281 Z M 26.730469 9.738281 "/>
<path style=" stroke:none;fill-rule:nonzero;fill:rgb(100%,100%,100%);fill-opacity:1;" d="M 11.621094 28.910156 C 11.621094 29.023438 11.53125 29.117188 11.417969 29.117188 C 11.304688 29.117188 11.214844 29.023438 11.214844 28.910156 C 11.214844 28.796875 11.304688 28.707031 11.417969 28.707031 C 11.53125 28.707031 11.621094 28.796875 11.621094 28.910156 Z M 11.621094 28.910156 "/>
<path style=" stroke:none;fill-rule:nonzero;fill:rgb(100%,100%,100%);fill-opacity:1;" d="M 12.152344 30.554688 C 12.152344 30.667969 12.0625 30.761719 11.949219 30.761719 C 11.835938 30.761719 11.746094 30.667969 11.746094 30.554688 C 11.746094 30.441406 11.835938 30.347656 11.949219 30.347656 C 12.0625 30.347656 12.152344 30.441406 12.152344 30.554688 Z M 12.152344 30.554688 "/>
<path style=" stroke:none;fill-rule:nonzero;fill:rgb(100%,100%,100%);fill-opacity:1;" d="M 9.566406 29.15625 C 9.566406 29.242188 9.496094 29.3125 9.414062 29.3125 C 9.328125 29.3125 9.261719 29.242188 9.261719 29.15625 C 9.261719 29.074219 9.328125 29.003906 9.414062 29.003906 C 9.496094 29.003906 9.566406 29.074219 9.566406 29.15625 Z M 9.566406 29.15625 "/>
<path style=" stroke:none;fill-rule:nonzero;fill:rgb(100%,100%,100%);fill-opacity:1;" d="M 17.886719 32.386719 C 17.886719 32.472656 17.816406 32.539062 17.730469 32.539062 C 17.648438 32.539062 17.578125 32.472656 17.578125 32.386719 C 17.578125 32.300781 17.648438 32.230469 17.730469 32.230469 C 17.816406 32.230469 17.886719 32.300781 17.886719 32.386719 Z M 17.886719 32.386719 "/>
<path style=" stroke:none;fill-rule:nonzero;fill:rgb(100%,100%,100%);fill-opacity:1;" d="M 30.929688 29.664062 C 30.929688 29.75 30.863281 29.820312 30.777344 29.820312 C 30.691406 29.820312 30.625 29.75 30.625 29.664062 C 30.625 29.578125 30.691406 29.511719 30.777344 29.511719 C 30.863281 29.511719 30.929688 29.578125 30.929688 29.664062 Z M 30.929688 29.664062 "/>
<path style=" stroke:none;fill-rule:nonzero;fill:rgb(100%,100%,100%);fill-opacity:1;" d="M 34.722656 25.527344 C 34.722656 25.613281 34.652344 25.683594 34.570312 25.683594 C 34.484375 25.683594 34.414062 25.613281 34.414062 25.527344 C 34.414062 25.445312 34.484375 25.375 34.570312 25.375 C 34.652344 25.375 34.722656 25.445312 34.722656 25.527344 Z M 34.722656 25.527344 "/>
<path style=" stroke:none;fill-rule:nonzero;fill:rgb(100%,100%,100%);fill-opacity:1;" d="M 16.140625 10.9375 C 16.140625 11.023438 16.070312 11.09375 15.984375 11.09375 C 15.902344 11.09375 15.832031 11.023438 15.832031 10.9375 C 15.832031 10.855469 15.902344 10.785156 15.984375 10.785156 C 16.070312 10.785156 16.140625 10.855469 16.140625 10.9375 Z M 16.140625 10.9375 "/>
<path style=" stroke:none;fill-rule:nonzero;fill:rgb(100%,100%,100%);fill-opacity:1;" d="M 20.3125 7.859375 C 20.3125 7.945312 20.242188 8.015625 20.160156 8.015625 C 20.074219 8.015625 20.003906 7.945312 20.003906 7.859375 C 20.003906 7.777344 20.074219 7.707031 20.160156 7.707031 C 20.242188 7.707031 20.3125 7.777344 20.3125 7.859375 Z M 20.3125 7.859375 "/>
<path style=" stroke:none;fill-rule:nonzero;fill:rgb(100%,100%,100%);fill-opacity:1;" d="M 19.859375 7.558594 C 19.859375 7.644531 19.789062 7.714844 19.707031 7.714844 C 19.621094 7.714844 19.550781 7.644531 19.550781 7.558594 C 19.550781 7.476562 19.621094 7.40625 19.707031 7.40625 C 19.789062 7.40625 19.859375 7.476562 19.859375 7.558594 Z M 19.859375 7.558594 "/>
<path style=" stroke:none;fill-rule:nonzero;fill:rgb(100%,100%,100%);fill-opacity:1;" d="M 19.449219 7.257812 C 19.449219 7.34375 19.382812 7.414062 19.296875 7.414062 C 19.210938 7.414062 19.144531 7.34375 19.144531 7.257812 C 19.144531 7.171875 19.210938 7.105469 19.296875 7.105469 C 19.382812 7.105469 19.449219 7.171875 19.449219 7.257812 Z M 19.449219 7.257812 "/>
<path style=" stroke:none;fill-rule:nonzero;fill:rgb(100%,100%,100%);fill-opacity:1;" d="M 16.792969 11.734375 C 16.792969 11.820312 16.726562 11.886719 16.640625 11.886719 C 16.554688 11.886719 16.488281 11.820312 16.488281 11.734375 C 16.488281 11.648438 16.554688 11.582031 16.640625 11.582031 C 16.726562 11.582031 16.792969 11.648438 16.792969 11.734375 Z M 16.792969 11.734375 "/>
<path style=" stroke:none;fill-rule:nonzero;fill:rgb(100%,100%,100%);fill-opacity:1;" d="M 22.941406 3.726562 C 22.941406 3.808594 22.871094 3.878906 22.785156 3.878906 C 22.703125 3.878906 22.632812 3.808594 22.632812 3.726562 C 22.632812 3.640625 22.703125 3.570312 22.785156 3.570312 C 22.871094 3.570312 22.941406 3.640625 22.941406 3.726562 Z M 22.941406 3.726562 "/>
<path style=" stroke:none;fill-rule:nonzero;fill:rgb(100%,100%,100%);fill-opacity:1;" d="M 23.949219 8.164062 C 23.949219 8.246094 23.882812 8.316406 23.796875 8.316406 C 23.710938 8.316406 23.644531 8.246094 23.644531 8.164062 C 23.644531 8.078125 23.710938 8.007812 23.796875 8.007812 C 23.882812 8.007812 23.949219 8.078125 23.949219 8.164062 Z M 23.949219 8.164062 "/>
<path style=" stroke:none;fill-rule:nonzero;fill:rgb(100%,100%,100%);fill-opacity:1;" d="M 22.355469 7.296875 C 22.355469 7.382812 22.289062 7.449219 22.203125 7.449219 C 22.121094 7.449219 22.050781 7.382812 22.050781 7.296875 C 22.050781 7.210938 22.121094 7.140625 22.203125 7.140625 C 22.289062 7.140625 22.355469 7.210938 22.355469 7.296875 Z M 22.355469 7.296875 "/>
<path style=" stroke:none;fill-rule:nonzero;fill:rgb(100%,100%,100%);fill-opacity:1;" d="M 19.628906 8.472656 C 19.628906 8.558594 19.5625 8.628906 19.476562 8.628906 C 19.390625 8.628906 19.324219 8.558594 19.324219 8.472656 C 19.324219 8.390625 19.390625 8.320312 19.476562 8.320312 C 19.5625 8.320312 19.628906 8.390625 19.628906 8.472656 Z M 19.628906 8.472656 "/>
<path style=" stroke:none;fill-rule:nonzero;fill:rgb(100%,100%,100%);fill-opacity:1;" d="M 31.65625 33.730469 C 31.65625 33.8125 31.589844 33.882812 31.503906 33.882812 C 31.417969 33.882812 31.351562 33.8125 31.351562 33.730469 C 31.351562 33.644531 31.417969 33.574219 31.503906 33.574219 C 31.589844 33.574219 31.65625 33.644531 31.65625 33.730469 Z M 31.65625 33.730469 "/>
<path style=" stroke:none;fill-rule:nonzero;fill:rgb(100%,100%,100%);fill-opacity:1;" d="M 11.3125 29.953125 C 11.3125 30.039062 11.242188 30.105469 11.160156 30.105469 C 11.074219 30.105469 11.003906 30.039062 11.003906 29.953125 C 11.003906 29.867188 11.074219 29.796875 11.160156 29.796875 C 11.242188 29.796875 11.3125 29.867188 11.3125 29.953125 Z M 11.3125 29.953125 "/>
<path style=" stroke:none;fill-rule:nonzero;fill:rgb(100%,100%,100%);fill-opacity:1;" d="M 21.976562 31.9375 C 21.976562 32.023438 21.90625 32.09375 21.824219 32.09375 C 21.738281 32.09375 21.667969 32.023438 21.667969 31.9375 C 21.667969 31.851562 21.738281 31.785156 21.824219 31.785156 C 21.90625 31.785156 21.976562 31.851562 21.976562 31.9375 Z M 21.976562 31.9375 "/>
<path style=" stroke:none;fill-rule:nonzero;fill:rgb(100%,100%,100%);fill-opacity:1;" d="M 14.484375 29.828125 C 14.484375 29.914062 14.417969 29.984375 14.332031 29.984375 C 14.246094 29.984375 14.179688 29.914062 14.179688 29.828125 C 14.179688 29.742188 14.246094 29.675781 14.332031 29.675781 C 14.417969 29.675781 14.484375 29.742188 14.484375 29.828125 Z M 14.484375 29.828125 "/>
<path style=" stroke:none;fill-rule:nonzero;fill:rgb(100%,100%,100%);fill-opacity:1;" d="M 15.8125 32.003906 C 15.8125 32.089844 15.742188 32.15625 15.660156 32.15625 C 15.574219 32.15625 15.503906 32.089844 15.503906 32.003906 C 15.503906 31.917969 15.574219 31.847656 15.660156 31.847656 C 15.742188 31.847656 15.8125 31.917969 15.8125 32.003906 Z M 15.8125 32.003906 "/>
<path style=" stroke:none;fill-rule:nonzero;fill:rgb(100%,100%,100%);fill-opacity:1;" d="M 25.574219 30.632812 C 25.574219 30.71875 25.507812 30.789062 25.421875 30.789062 C 25.335938 30.789062 25.269531 30.71875 25.269531 30.632812 C 25.269531 30.550781 25.335938 30.480469 25.421875 30.480469 C 25.507812 30.480469 25.574219 30.550781 25.574219 30.632812 Z M 25.574219 30.632812 "/>
<path style=" stroke:none;fill-rule:nonzero;fill:rgb(100%,100%,100%);fill-opacity:1;" d="M 30.957031 27.582031 C 30.957031 27.667969 30.890625 27.738281 30.804688 27.738281 C 30.71875 27.738281 30.652344 27.667969 30.652344 27.582031 C 30.652344 27.5 30.71875 27.429688 30.804688 27.429688 C 30.890625 27.429688 30.957031 27.5 30.957031 27.582031 Z M 30.957031 27.582031 "/>
<path style=" stroke:none;fill-rule:nonzero;fill:rgb(100%,100%,100%);fill-opacity:1;" d="M 35.039062 29.457031 C 35.039062 29.539062 34.96875 29.609375 34.886719 29.609375 C 34.800781 29.609375 34.734375 29.539062 34.734375 29.457031 C 34.734375 29.371094 34.800781 29.300781 34.886719 29.300781 C 34.96875 29.300781 35.039062 29.371094 35.039062 29.457031 Z M 35.039062 29.457031 "/>
<path style=" stroke:none;fill-rule:nonzero;fill:rgb(100%,100%,100%);fill-opacity:1;" d="M 36.429688 30.347656 C 36.429688 30.433594 36.363281 30.503906 36.277344 30.503906 C 36.191406 30.503906 36.125 30.433594 36.125 30.347656 C 36.125 30.265625 36.191406 30.195312 36.277344 30.195312 C 36.363281 30.195312 36.429688 30.265625 36.429688 30.347656 Z M 36.429688 30.347656 "/>
<path style=" stroke:none;fill-rule:nonzero;fill:rgb(100%,100%,100%);fill-opacity:1;" d="M 36.660156 27.910156 C 36.660156 27.996094 36.589844 28.066406 36.503906 28.066406 C 36.421875 28.066406 36.351562 27.996094 36.351562 27.910156 C 36.351562 27.828125 36.421875 27.757812 36.503906 27.757812 C 36.589844 27.757812 36.660156 27.828125 36.660156 27.910156 Z M 36.660156 27.910156 "/>
<path style=" stroke:none;fill-rule:nonzero;fill:rgb(100%,100%,100%);fill-opacity:1;" d="M 16.367188 24.460938 C 16.367188 24.546875 16.296875 24.613281 16.214844 24.613281 C 16.128906 24.613281 16.0625 24.546875 16.0625 24.460938 C 16.0625 24.375 16.128906 24.304688 16.214844 24.304688 C 16.296875 24.304688 16.367188 24.375 16.367188 24.460938 Z M 16.367188 24.460938 "/>
<path style=" stroke:none;fill-rule:nonzero;fill:rgb(100%,100%,100%);fill-opacity:1;" d="M 16.476562 27.992188 C 16.476562 28.105469 16.386719 28.199219 16.273438 28.199219 C 16.160156 28.199219 16.066406 28.105469 16.066406 27.992188 C 16.066406 27.878906 16.160156 27.789062 16.273438 27.789062 C 16.386719 27.789062 16.476562 27.878906 16.476562 27.992188 Z M 16.476562 27.992188 "/>
<path style=" stroke:none;fill-rule:nonzero;fill:rgb(100%,100%,100%);fill-opacity:1;" d="M 17.703125 30.597656 C 17.703125 30.710938 17.613281 30.800781 17.5 30.800781 C 17.386719 30.800781 17.296875 30.710938 17.296875 30.597656 C 17.296875 30.484375 17.386719 30.390625 17.5 30.390625 C 17.613281 30.390625 17.703125 30.484375 17.703125 30.597656 Z M 17.703125 30.597656 "/>
<path style=" stroke:none;fill-rule:nonzero;fill:rgb(100%,100%,100%);fill-opacity:1;" d="M 32.402344 27.882812 C 32.402344 27.996094 32.3125 28.089844 32.199219 28.089844 C 32.085938 28.089844 31.996094 27.996094 31.996094 27.882812 C 31.996094 27.769531 32.085938 27.679688 32.199219 27.679688 C 32.3125 27.679688 32.402344 27.769531 32.402344 27.882812 Z M 32.402344 27.882812 "/>
<path style=" stroke:none;fill-rule:nonzero;fill:rgb(100%,100%,100%);fill-opacity:1;" d="M 37.695312 27.582031 C 37.695312 27.695312 37.601562 27.789062 37.492188 27.789062 C 37.378906 27.789062 37.285156 27.695312 37.285156 27.582031 C 37.285156 27.46875 37.378906 27.378906 37.492188 27.378906 C 37.601562 27.378906 37.695312 27.46875 37.695312 27.582031 Z M 37.695312 27.582031 "/>
<path style=" stroke:none;fill-rule:nonzero;fill:rgb(100%,100%,100%);fill-opacity:1;" d="M 35.078125 26.460938 C 35.078125 26.574219 34.984375 26.664062 34.871094 26.664062 C 34.757812 26.664062 34.667969 26.574219 34.667969 26.460938 C 34.667969 26.347656 34.757812 26.253906 34.871094 26.253906 C 34.984375 26.253906 35.078125 26.347656 35.078125 26.460938 Z M 35.078125 26.460938 "/>
<path style=" stroke:none;fill-rule:nonzero;fill:rgb(100%,100%,100%);fill-opacity:1;" d="M 32.402344 26.570312 C 32.402344 26.683594 32.3125 26.773438 32.199219 26.773438 C 32.085938 26.773438 31.996094 26.683594 31.996094 26.570312 C 31.996094 26.457031 32.085938 26.363281 32.199219 26.363281 C 32.3125 26.363281 32.402344 26.457031 32.402344 26.570312 Z M 32.402344 26.570312 "/>
<path style=" stroke:none;fill-rule:nonzero;fill:rgb(100%,100%,100%);fill-opacity:1;" d="M 26.6875 5.609375 L 27.195312 5.5625 L 26.6875 5.53125 C 26.671875 5.433594 26.59375 5.355469 26.492188 5.34375 L 26.445312 4.835938 L 26.414062 5.347656 C 26.324219 5.367188 26.253906 5.445312 26.242188 5.542969 L 25.722656 5.589844 L 26.246094 5.617188 C 26.265625 5.707031 26.335938 5.773438 26.425781 5.789062 L 26.472656 6.316406 L 26.5 5.792969 C 26.59375 5.777344 26.667969 5.703125 26.6875 5.609375 Z M 26.6875 5.609375 "/>
<path style=" stroke:none;fill-rule:nonzero;fill:rgb(100%,100%,100%);fill-opacity:1;" d="M 18.101562 11.296875 L 18.609375 11.25 L 18.101562 11.21875 C 18.085938 11.121094 18.007812 11.042969 17.910156 11.03125 L 17.859375 10.523438 L 17.832031 11.035156 C 17.738281 11.054688 17.667969 11.132812 17.65625 11.230469 L 17.136719 11.277344 L 17.660156 11.304688 C 17.679688 11.390625 17.75 11.460938 17.839844 11.476562 L 17.886719 12.003906 L 17.914062 11.480469 C 18.011719 11.464844 18.085938 11.390625 18.101562 11.296875 Z M 18.101562 11.296875 "/>
<path style=" stroke:none;fill-rule:nonzero;fill:rgb(100%,100%,100%);fill-opacity:1;" d="M 37.117188 26.335938 L 37.625 26.285156 L 37.117188 26.257812 C 37.101562 26.15625 37.023438 26.082031 36.925781 26.066406 L 36.875 25.558594 L 36.847656 26.070312 C 36.757812 26.09375 36.683594 26.167969 36.675781 26.265625 L 36.152344 26.3125 L 36.675781 26.339844 C 36.695312 26.429688 36.769531 26.5 36.855469 26.515625 L 36.902344 27.039062 L 36.933594 26.515625 C 37.027344 26.5 37.101562 26.425781 37.117188 26.335938 Z M 37.117188 26.335938 "/>
<path style=" stroke:none;fill-rule:nonzero;fill:rgb(100%,100%,100%);fill-opacity:1;" d="M 16.382812 34.195312 L 16.890625 34.148438 L 16.382812 34.117188 C 16.367188 34.019531 16.289062 33.941406 16.191406 33.929688 L 16.140625 33.421875 L 16.113281 33.933594 C 16.019531 33.953125 15.949219 34.03125 15.941406 34.128906 L 15.417969 34.175781 L 15.941406 34.203125 C 15.960938 34.292969 16.03125 34.359375 16.121094 34.378906 L 16.167969 34.902344 L 16.199219 34.378906 C 16.292969 34.363281 16.367188 34.289062 16.382812 34.195312 Z M 16.382812 34.195312 "/>
<path style=" stroke:none;fill-rule:nonzero;fill:rgb(100%,100%,100%);fill-opacity:1;" d="M 35.5 30.363281 L 36.011719 30.3125 L 35.503906 30.285156 C 35.488281 30.183594 35.40625 30.109375 35.308594 30.09375 L 35.261719 29.585938 L 35.230469 30.097656 C 35.140625 30.121094 35.070312 30.195312 35.058594 30.292969 L 34.539062 30.339844 L 35.0625 30.367188 C 35.082031 30.457031 35.152344 30.523438 35.242188 30.542969 L 35.289062 31.066406 L 35.316406 30.542969 C 35.410156 30.527344 35.484375 30.453125 35.5 30.363281 Z M 35.5 30.363281 "/>
<path style=" stroke:none;fill-rule:nonzero;fill:rgb(98.823529%,23.921569%,12.941176%);fill-opacity:1;" d="M 27.078125 16.152344 C 24.953125 16.980469 22.886719 17.722656 21.140625 18.269531 C 17.59375 19.386719 7.886719 22.40625 2.023438 26.214844 L 2.511719 26.40625 C 6.085938 24.378906 8.40625 23.742188 10.640625 23.035156 C 13.066406 22.269531 20.914062 20.425781 24.46875 19.421875 C 25.667969 19.082031 27.074219 18.636719 28.5625 18.097656 C 28.214844 17.609375 27.851562 17.125 27.464844 16.640625 C 27.335938 16.476562 27.207031 16.3125 27.078125 16.152344 Z M 29.667969 19.742188 C 29.15625 20.089844 28.722656 20.367188 28.421875 20.542969 C 26.675781 21.558594 18.167969 27.390625 16.230469 28.734375 C 14.296875 30.074219 8.921875 35.171875 7.339844 36.648438 L 7.285156 37.25 C 12.386719 32.648438 13.988281 31.515625 16.011719 29.964844 C 18.523438 28.046875 23.714844 24.5 25.476562 23.363281 C 27.164062 22.277344 28.683594 21.277344 30.050781 20.363281 C 30.027344 20.328125 30.003906 20.289062 29.984375 20.25 C 29.878906 20.082031 29.773438 19.914062 29.667969 19.742188 Z M 37.640625 11.285156 C 35.15625 12.746094 31.238281 14.511719 27.441406 16.011719 C 27.53125 16.121094 27.621094 16.234375 27.710938 16.347656 C 28.136719 16.886719 28.539062 17.425781 28.914062 17.96875 C 31.902344 16.863281 35.175781 15.378906 37.777344 13.585938 C 36.539062 14.765625 32.445312 17.839844 29.945312 19.550781 C 30.074219 19.761719 30.199219 19.972656 30.320312 20.183594 C 34.101562 17.640625 36.648438 15.769531 38.132812 14.515625 C 40.175781 12.792969 44.839844 8.929688 46.613281 3.753906 C 43.503906 7.722656 39.828125 9.996094 37.640625 11.285156 Z M 37.640625 11.285156 "/>
<path style=" stroke:none;fill-rule:nonzero;fill:rgb(100%,100%,100%);fill-opacity:1;" d="M 20.402344 25.082031 C 20 24.574219 19.441406 23.890625 19.027344 23.363281 C 18.46875 22.65625 17.949219 21.941406 17.476562 21.230469 C 17.320312 21.269531 17.167969 21.308594 17.011719 21.347656 C 17.585938 22.242188 18.21875 23.136719 18.914062 24.011719 C 19.417969 24.652344 19.878906 25.167969 20.113281 25.484375 C 20.160156 25.550781 20.253906 25.695312 20.382812 25.886719 C 20.53125 25.785156 20.679688 25.683594 20.828125 25.582031 C 20.683594 25.421875 20.539062 25.257812 20.402344 25.082031 Z M 23.339844 27.757812 C 23.007812 27.445312 22.207031 26.917969 21.371094 26.132812 C 21.1875 26.257812 21.003906 26.386719 20.816406 26.515625 C 21.355469 27.28125 22.089844 28.214844 22.664062 28.488281 C 23.527344 28.902344 23.761719 28.160156 23.339844 27.757812 Z M 27.710938 16.347656 C 22.941406 10.320312 17.117188 7.007812 14.605469 9.011719 C 12.65625 10.570312 13.457031 15.121094 16.144531 19.898438 C 16.285156 19.851562 16.421875 19.804688 16.558594 19.757812 C 13.84375 15.101562 13.101562 10.773438 14.941406 9.304688 C 17.253906 7.460938 22.835938 10.785156 27.46875 16.636719 C 28.425781 17.851562 29.269531 19.066406 29.980469 20.25 C 32.714844 24.792969 33.554688 28.902344 31.664062 30.578125 C 31.085938 31.09375 29.324219 31.292969 27.007812 30.246094 C 26.976562 30.289062 27.027344 30.398438 27.070312 30.425781 C 29.066406 31.230469 30.976562 31.539062 31.945312 30.769531 C 34.261719 28.917969 32.480469 22.378906 27.710938 16.347656 Z M 27.710938 16.347656 "/>
<path style=" stroke:none;fill-rule:nonzero;fill:rgb(100%,100%,100%);fill-opacity:1;" d="M 7.257812 17.066406 L 10.3125 17.066406 L 12.875 21.433594 C 12.875 21.433594 12.875 18.269531 12.875 18.023438 C 12.875 17.640625 12.394531 17.140625 12.222656 17.066406 C 12.425781 17.066406 14.214844 17.066406 14.335938 17.066406 C 14.207031 17.097656 13.789062 17.605469 13.789062 18.023438 C 13.789062 18.230469 13.789062 22.816406 13.789062 23.035156 C 13.789062 23.34375 14.234375 23.769531 14.445312 23.933594 L 11.5 23.933594 L 8.894531 19.542969 C 8.894531 19.542969 8.894531 22.816406 8.894531 22.996094 C 8.894531 23.335938 9.230469 23.667969 9.578125 23.945312 L 7.328125 23.945312 C 7.648438 23.808594 7.953125 23.378906 7.980469 23.035156 C 8.007812 22.695312 7.980469 18.277344 7.980469 18.085938 C 7.980469 17.667969 7.578125 17.324219 7.257812 17.066406 Z M 7.257812 17.066406 "/>
<path style=" stroke:none;fill-rule:nonzero;fill:rgb(100%,100%,100%);fill-opacity:1;" d="M 35.199219 23.933594 L 39.261719 23.933594 C 39.039062 23.878906 38.785156 23.609375 38.648438 23.253906 C 38.511719 22.898438 36.359375 17.066406 36.359375 17.066406 L 34.8125 17.066406 C 34.375 17.382812 33.90625 17.714844 33.40625 18.066406 C 33.402344 18.082031 33.402344 18.09375 33.398438 18.105469 C 33.332031 18.515625 32.125 22.914062 32.050781 23.132812 C 31.949219 23.433594 31.421875 23.769531 31.210938 23.945312 L 33.398438 23.945312 C 33.179688 23.699219 33.003906 23.460938 33.046875 23.1875 C 33.085938 22.914062 33.207031 22.363281 33.207031 22.363281 L 35.472656 22.363281 C 35.574219 22.640625 35.652344 22.886719 35.691406 23.117188 C 35.738281 23.398438 35.453125 23.714844 35.199219 23.933594 Z M 33.414062 21.488281 L 34.175781 18.980469 L 35.1875 21.488281 Z M 33.070312 17.316406 C 33.179688 17.230469 33.292969 17.148438 33.40625 17.066406 L 32.8125 17.066406 C 32.871094 17.121094 32.96875 17.207031 33.070312 17.316406 Z M 33.070312 17.316406 "/>
<path style=" stroke:none;fill-rule:nonzero;fill:rgb(100%,100%,100%);fill-opacity:1;" d="M 17.527344 23.1875 C 17.566406 22.914062 17.691406 22.363281 17.691406 22.363281 L 19.953125 22.363281 C 20.054688 22.640625 20.132812 22.886719 20.171875 23.117188 C 20.21875 23.398438 19.933594 23.714844 19.679688 23.933594 L 23.257812 23.933594 C 23.332031 23.882812 23.40625 23.832031 23.480469 23.78125 C 23.34375 23.660156 23.214844 23.476562 23.132812 23.253906 C 22.996094 22.898438 20.839844 17.066406 20.839844 17.066406 L 17.296875 17.066406 C 17.464844 17.222656 17.957031 17.648438 17.882812 18.105469 C 17.816406 18.515625 16.605469 22.914062 16.53125 23.132812 C 16.429688 23.433594 15.902344 23.769531 15.691406 23.945312 L 17.882812 23.945312 C 17.664062 23.699219 17.484375 23.460938 17.527344 23.1875 Z M 18.660156 18.980469 L 19.667969 21.488281 L 17.894531 21.488281 Z M 18.660156 18.980469 "/>
<path style=" stroke:none;fill-rule:nonzero;fill:rgb(100%,100%,100%);fill-opacity:1;" d="M 29.886719 20.472656 C 29.21875 20.921875 28.515625 21.386719 27.773438 21.875 C 28.105469 22.035156 28.371094 22.238281 28.394531 22.503906 C 28.441406 22.996094 27.453125 23.234375 26.5625 23.132812 C 26.382812 23.113281 26.207031 23.0625 26.039062 23 C 25.855469 23.121094 25.667969 23.242188 25.476562 23.363281 C 25.285156 23.488281 25.050781 23.644531 24.78125 23.820312 L 24.78125 24.527344 C 24.960938 24.179688 25.347656 23.867188 25.648438 23.851562 C 25.777344 23.84375 26.226562 24.261719 28.082031 24.160156 C 28.980469 24.109375 30.71875 23.144531 30.691406 22.035156 C 30.675781 21.378906 30.335938 20.871094 29.886719 20.472656 Z M 24.78125 22.1875 L 24.78125 22.910156 C 24.945312 22.800781 25.105469 22.691406 25.265625 22.585938 C 25.015625 22.410156 24.839844 22.25 24.78125 22.1875 Z M 29.25 20.019531 C 29.078125 19.917969 28.902344 19.828125 28.734375 19.75 C 27.863281 19.335938 26.949219 19.261719 26.757812 18.707031 C 26.625 18.316406 27.003906 17.953125 27.929688 17.96875 C 28.859375 17.980469 29.71875 18.535156 29.949219 18.734375 L 29.949219 16.96875 C 29.882812 17.035156 29.582031 17.382812 29.308594 17.324219 C 28.785156 17.214844 27.890625 17.070312 26.867188 17.078125 C 25.695312 17.085938 24.6875 17.996094 24.652344 19.144531 C 24.605469 20.753906 25.886719 21.195312 26.609375 21.445312 C 26.683594 21.472656 26.769531 21.5 26.859375 21.53125 C 27.554688 21.078125 28.101562 20.730469 28.421875 20.542969 C 28.636719 20.417969 28.921875 20.238281 29.25 20.019531 Z M 29.25 20.019531 "/>
</g>
</svg>
