<?xml version="1.0" encoding="UTF-8"?>
<svg xmlns="http://www.w3.org/2000/svg" xmlns:xlink="http://www.w3.org/1999/xlink" width="50pt" height="37pt" viewBox="0 0 50 37" version="1.1">
<g id="surface1">
<path style=" stroke:none;fill-rule:nonzero;fill:rgb(0%,0%,0%);fill-opacity:1;" d="M 49.652344 35.828125 C 49.652344 36.367188 49.257812 36.726562 48.789062 36.726562 C 48.3125 36.726562 47.925781 36.367188 47.925781 35.828125 C 47.925781 35.289062 48.3125 34.929688 48.789062 34.929688 C 49.257812 34.925781 49.652344 35.289062 49.652344 35.828125 Z M 50 35.828125 C 50 35.085938 49.429688 34.65625 48.789062 34.65625 C 48.148438 34.65625 47.578125 35.085938 47.578125 35.828125 C 47.578125 36.566406 48.148438 36.996094 48.789062 36.996094 C 49.429688 36.996094 50 36.566406 50 35.828125 M 48.589844 35.925781 L 48.71875 35.925781 L 49.019531 36.457031 L 49.347656 36.457031 L 49.015625 35.902344 C 49.1875 35.890625 49.328125 35.808594 49.328125 35.578125 C 49.328125 35.289062 49.132812 35.195312 48.796875 35.195312 L 48.3125 35.195312 L 48.3125 36.457031 L 48.589844 36.457031 L 48.589844 35.925781 M 48.589844 35.714844 L 48.589844 35.410156 L 48.785156 35.410156 C 48.890625 35.410156 49.035156 35.417969 49.035156 35.546875 C 49.035156 35.6875 48.960938 35.714844 48.835938 35.714844 L 48.589844 35.714844 M 41.855469 29.382812 L 43.363281 33.527344 L 40.300781 33.527344 Z M 40.242188 27.769531 L 36.765625 36.613281 L 39.21875 36.613281 L 39.769531 35.050781 L 43.882812 35.050781 L 44.402344 36.613281 L 47.066406 36.613281 L 43.566406 27.765625 Z M 33.265625 36.617188 L 35.753906 36.617188 L 35.753906 27.765625 L 33.265625 27.765625 Z M 15.984375 27.765625 L 13.910156 34.78125 L 11.917969 27.765625 L 9.234375 27.765625 L 12.074219 36.617188 L 15.660156 36.617188 L 18.527344 27.765625 Z M 26.046875 29.691406 L 27.117188 29.691406 C 28.667969 29.691406 29.671875 30.394531 29.671875 32.210938 C 29.671875 34.027344 28.667969 34.726562 27.117188 34.726562 L 26.046875 34.726562 Z M 23.578125 27.765625 L 23.578125 36.617188 L 27.613281 36.617188 C 29.765625 36.617188 30.464844 36.257812 31.226562 35.453125 C 31.761719 34.886719 32.109375 33.644531 32.109375 32.289062 C 32.109375 31.042969 31.816406 29.933594 31.304688 29.242188 C 30.382812 28.007812 29.054688 27.765625 27.070312 27.765625 Z M 0 27.753906 L 0 36.617188 L 2.511719 36.617188 L 2.511719 29.886719 L 4.457031 29.886719 C 5.097656 29.886719 5.558594 30.046875 5.867188 30.382812 C 6.261719 30.800781 6.421875 31.480469 6.421875 32.726562 L 6.421875 36.617188 L 8.855469 36.617188 L 8.855469 31.71875 C 8.855469 28.222656 6.636719 27.753906 4.46875 27.753906 Z M 19.574219 27.765625 L 19.574219 36.617188 L 22.0625 36.617188 L 22.0625 27.765625 Z M 19.574219 27.765625 "/>
<path style=" stroke:none;fill-rule:nonzero;fill:rgb(46.666667%,72.54902%,0%);fill-opacity:1;" d="M 6.691406 10.136719 C 6.691406 10.136719 9.890625 5.390625 16.285156 4.902344 L 16.285156 3.179688 C 9.203125 3.75 3.070312 9.777344 3.070312 9.777344 C 3.070312 9.777344 6.542969 19.863281 16.285156 20.789062 L 16.285156 18.957031 C 9.136719 18.054688 6.691406 10.136719 6.691406 10.136719 Z M 16.285156 15.316406 L 16.285156 16.992188 C 10.882812 16.023438 9.382812 10.382812 9.382812 10.382812 C 9.382812 10.382812 11.976562 7.496094 16.285156 7.027344 L 16.285156 8.867188 C 16.28125 8.867188 16.277344 8.867188 16.273438 8.867188 C 14.015625 8.59375 12.25 10.714844 12.25 10.714844 C 12.25 10.714844 13.238281 14.289062 16.285156 15.316406 M 16.285156 0.00390625 L 16.285156 3.179688 C 16.492188 3.164062 16.699219 3.148438 16.90625 3.140625 C 24.957031 2.867188 30.203125 9.777344 30.203125 9.777344 C 30.203125 9.777344 24.179688 17.136719 17.902344 17.136719 C 17.328125 17.136719 16.789062 17.082031 16.285156 16.992188 L 16.285156 18.957031 C 16.730469 19.015625 17.179688 19.042969 17.632812 19.042969 C 23.472656 19.042969 27.695312 16.046875 31.785156 12.5 C 32.464844 13.046875 35.238281 14.375 35.808594 14.953125 C 31.921875 18.226562 22.859375 20.863281 17.722656 20.863281 C 17.226562 20.863281 16.75 20.832031 16.285156 20.789062 L 16.285156 23.546875 L 38.480469 23.546875 L 38.480469 0.00390625 Z M 16.285156 7.027344 L 16.285156 4.902344 C 16.488281 4.886719 16.695312 4.875 16.90625 4.867188 C 22.695312 4.6875 26.496094 9.867188 26.496094 9.867188 C 26.496094 9.867188 22.390625 15.589844 17.996094 15.589844 C 17.363281 15.589844 16.792969 15.488281 16.285156 15.316406 L 16.285156 8.867188 C 18.535156 9.140625 18.992188 10.140625 20.34375 12.410156 L 23.359375 9.859375 C 23.359375 9.859375 21.160156 6.957031 17.449219 6.957031 C 17.046875 6.957031 16.664062 6.988281 16.285156 7.027344 "/>
</g>
</svg>
