<?xml version="1.0" encoding="UTF-8"?>
<svg xmlns="http://www.w3.org/2000/svg" xmlns:xlink="http://www.w3.org/1999/xlink" width="50pt" height="46pt" viewBox="0 0 50 46" version="1.1">
<g id="surface1">
<path style=" stroke:none;fill-rule:nonzero;fill:rgb(12.156863%,12.54902%,11.764706%);fill-opacity:1;" d="M 40.902344 14.71875 C 39.859375 5.988281 33.140625 2.265625 30.066406 1.011719 C 29.253906 0.675781 28.410156 0.425781 27.546875 0.28125 C 15.503906 -1.726562 9.914062 7.925781 9.203125 9.257812 C 9.160156 9.339844 9.1875 9.445312 9.269531 9.492188 L 10.480469 10.214844 C 10.558594 10.261719 10.589844 10.359375 10.550781 10.441406 C 5.914062 20.640625 12.203125 27.683594 14.703125 29.953125 C 15.210938 30.414062 15.765625 30.832031 16.359375 31.1875 C 27.101562 37.667969 35.613281 29.710938 35.613281 29.710938 C 42.945312 23.105469 40.902344 14.71875 40.902344 14.71875 Z M 13.941406 16.464844 C 12.617188 19.089844 12.917969 21.472656 12.8125 22.089844 C 12.714844 22.667969 12.351562 22.160156 12.308594 22.097656 C 12.304688 22.09375 12.304688 22.089844 12.300781 22.085938 C 11.546875 20.796875 11.71875 17.832031 11.730469 17.632812 C 11.730469 17.628906 11.730469 17.621094 11.730469 17.613281 C 12.003906 16.078125 12.859375 13.734375 13.59375 12.992188 C 14.34375 12.238281 14.855469 11.121094 17.667969 9.75 C 20.492188 8.390625 23.335938 8.585938 26.023438 9.75 C 28.710938 10.910156 30.742188 13.867188 30.953125 15.101562 C 31.140625 16.199219 30.449219 15.441406 30.300781 15.269531 C 30.289062 15.253906 30.277344 15.238281 30.269531 15.214844 C 30.238281 15.121094 29.976562 14.675781 28.003906 13.125 C 25.691406 11.316406 22.605469 10.804688 20.230469 11.421875 C 17.835938 12.03125 15.265625 13.839844 13.941406 16.464844 Z M 28.101562 22.785156 C 25.113281 26.007812 22.207031 23.652344 22.089844 23.558594 C 22.089844 23.558594 22.085938 23.554688 22.082031 23.550781 C 19.152344 21.417969 20.734375 18.132812 20.859375 17.882812 C 20.863281 17.871094 20.871094 17.863281 20.878906 17.855469 C 22.84375 15.277344 24.871094 15.589844 25.921875 16.019531 C 26.359375 16.195312 26.742188 16.476562 27.066406 16.820312 C 28.996094 18.945312 27.644531 21.113281 27.230469 21.679688 C 27.171875 21.757812 27.1875 21.867188 27.269531 21.925781 L 28.074219 22.519531 C 28.160156 22.582031 28.171875 22.703125 28.101562 22.785156 Z M 37.75 21.746094 C 37.75 21.746094 34.488281 31.761719 23.890625 30.675781 C 23.890625 30.675781 16.90625 29.652344 15.746094 22.234375 C 15.746094 22.230469 15.742188 22.222656 15.742188 22.21875 C 15.699219 22.042969 14.832031 18.332031 19.167969 15.007812 C 19.171875 15.003906 19.175781 15 19.179688 14.996094 C 19.226562 14.96875 19.429688 14.863281 19.339844 15.253906 C 19.234375 15.691406 17.964844 16.066406 17.453125 19.832031 C 16.945312 23.597656 20.097656 25.832031 20.914062 26.398438 C 21.726562 26.960938 26.851562 29 30.695312 25.246094 C 34.449219 21.582031 33.910156 16.863281 33.886719 16.636719 C 33.886719 16.632812 33.882812 16.628906 33.882812 16.621094 C 33.875 16.410156 33.703125 12.117188 29.402344 8.601562 C 25.070312 5.054688 19.730469 6.105469 19.550781 6.140625 C 19.550781 6.140625 19.546875 6.144531 19.542969 6.144531 C 19.433594 6.160156 17.25 6.503906 13.929688 8.683594 C 13.898438 8.703125 13.859375 8.734375 13.839844 8.765625 C 13.777344 8.859375 13.578125 9.070312 13.222656 8.921875 C 12.871094 8.777344 12.941406 8.714844 13.402344 8.246094 C 13.824219 7.808594 14.070312 7.535156 14.105469 7.496094 C 14.105469 7.492188 14.109375 7.492188 14.113281 7.488281 C 14.28125 7.265625 20.191406 -0.300781 30.644531 4.492188 C 30.902344 4.605469 31.144531 4.742188 31.382812 4.898438 C 33.339844 6.125 41.019531 11.707031 37.75 21.746094 Z M 0 36.488281 L 1.9375 36.488281 C 2.035156 36.488281 2.113281 36.570312 2.113281 36.667969 L 2.113281 42.574219 C 2.113281 42.589844 2.117188 42.601562 2.117188 42.617188 C 2.164062 42.796875 2.519531 44.046875 3.820312 44.046875 C 5.21875 44.046875 5.65625 42.824219 5.65625 42.613281 L 5.65625 36.652344 C 5.65625 36.554688 5.734375 36.476562 5.832031 36.476562 L 7.542969 36.476562 C 7.640625 36.476562 7.71875 36.554688 7.71875 36.652344 L 7.71875 42.488281 C 7.71875 42.570312 7.71875 42.65625 7.707031 42.738281 C 7.625 43.40625 7.082031 45.960938 3.863281 45.960938 C 0.863281 45.960938 0.195312 43.816406 0.0507812 43 C 0.0195312 42.84375 0.0078125 42.6875 0.0078125 42.519531 L 0.0078125 36.488281 Z M 13.574219 40.972656 C 13.574219 40.972656 14.703125 40.484375 14.703125 38.777344 C 14.703125 37.074219 12.742188 36.480469 11.835938 36.480469 L 8.832031 36.480469 C 8.734375 36.480469 8.65625 36.554688 8.65625 36.652344 C 8.640625 37.953125 8.5625 45.984375 8.660156 45.984375 L 12.304688 45.984375 C 12.460938 45.984375 12.628906 45.960938 12.785156 45.921875 C 13.441406 45.742188 15.054688 45.125 15.054688 43.316406 C 15.054688 41.058594 13.574219 40.972656 13.574219 40.972656 Z M 10.648438 38.4375 C 10.648438 38.34375 10.726562 38.261719 10.820312 38.261719 C 11.054688 38.253906 11.480469 38.242188 11.898438 38.242188 C 12.285156 38.242188 12.765625 38.628906 12.765625 39.203125 C 12.765625 39.570312 12.554688 39.8125 12.367188 39.957031 C 12.191406 40.082031 11.984375 40.144531 11.773438 40.144531 L 10.828125 40.144531 C 10.730469 40.144531 10.652344 40.066406 10.652344 39.96875 L 10.652344 38.4375 Z M 11.980469 44.207031 L 10.824219 44.207031 C 10.726562 44.207031 10.648438 44.125 10.648438 44.027344 L 10.648438 42.148438 C 10.648438 42.054688 10.722656 41.976562 10.816406 41.972656 C 11.082031 41.964844 11.613281 41.949219 12.125 41.949219 C 12.585938 41.949219 13.160156 42.40625 13.160156 43.097656 C 13.160156 43.527344 12.921875 43.808594 12.691406 43.988281 C 12.480469 44.132812 12.230469 44.207031 11.980469 44.207031 Z M 15.980469 36.488281 L 17.730469 36.488281 C 17.832031 36.488281 17.910156 36.570312 17.910156 36.667969 L 17.910156 45.796875 C 17.910156 45.894531 17.832031 45.972656 17.730469 45.972656 L 15.980469 45.972656 C 15.882812 45.972656 15.804688 45.894531 15.804688 45.796875 L 15.804688 36.667969 C 15.804688 36.570312 15.882812 36.488281 15.980469 36.488281 Z M 18.484375 44.046875 L 19.933594 42.898438 C 20.019531 42.832031 20.140625 42.855469 20.195312 42.949219 C 20.417969 43.320312 21.019531 44.152344 21.964844 44.152344 C 23.183594 44.152344 23.089844 42.9375 23.089844 42.9375 C 23.089844 42.9375 23.121094 42.320312 21.527344 41.828125 C 19.933594 41.335938 18.914062 40.324219 18.984375 39.140625 C 19.058594 37.96875 19.871094 36.707031 21.070312 36.488281 C 22.234375 36.273438 23.710938 36.296875 24.851562 37.878906 C 24.910156 37.957031 24.894531 38.070312 24.8125 38.125 L 23.539062 39.0625 C 23.453125 39.125 23.332031 39.097656 23.28125 39.007812 C 23.101562 38.691406 22.625 38.074219 21.714844 38.160156 C 20.496094 38.273438 20.722656 39.289062 21.046875 39.613281 C 21.339844 39.90625 22.851562 40.449219 23.195312 40.574219 C 23.246094 40.597656 23.398438 40.65625 23.457031 40.675781 C 23.460938 40.679688 23.46875 40.683594 23.472656 40.683594 C 23.824219 40.855469 25.027344 41.554688 25.089844 42.53125 C 25.171875 43.703125 25.203125 44.78125 23.476562 45.648438 C 21.742188 46.503906 19.492188 45.6875 18.484375 44.046875 Z M 41.664062 42.167969 L 37.9375 42.167969 C 37.835938 42.167969 37.757812 42.246094 37.757812 42.34375 L 37.757812 45.796875 C 37.757812 45.894531 37.679688 45.972656 37.582031 45.972656 L 35.988281 45.972656 C 35.890625 45.972656 35.808594 45.894531 35.808594 45.796875 L 35.808594 36.699219 C 35.808594 36.601562 35.890625 36.519531 35.988281 36.519531 L 41.894531 36.519531 C 41.992188 36.519531 42.070312 36.601562 42.070312 36.699219 L 42.070312 38.359375 C 42.070312 38.460938 41.992188 38.539062 41.894531 38.539062 L 37.957031 38.539062 C 37.859375 38.539062 37.78125 38.617188 37.78125 38.714844 L 37.78125 40.367188 C 37.78125 40.464844 37.859375 40.546875 37.957031 40.546875 L 41.664062 40.546875 M 45.355469 45.792969 L 45.355469 38.753906 C 45.355469 38.65625 45.273438 38.578125 45.175781 38.578125 L 42.96875 38.578125 C 42.871094 38.578125 42.792969 38.5 42.792969 38.402344 L 42.792969 36.695312 C 42.792969 36.597656 42.871094 36.519531 42.96875 36.519531 L 49.824219 36.519531 C 49.921875 36.519531 50.003906 36.597656 50.003906 36.695312 L 50.003906 38.402344 C 50.003906 38.5 49.921875 38.578125 49.824219 38.578125 L 47.6875 38.578125 C 47.589844 38.578125 47.511719 38.65625 47.511719 38.753906 L 47.511719 45.792969 C 47.511719 45.890625 47.429688 45.972656 47.332031 45.972656 L 45.53125 45.972656 C 45.433594 45.972656 45.355469 45.890625 45.355469 45.792969 Z M 30.507812 36.300781 C 29.207031 36.300781 28.03125 36.800781 27.167969 37.625 C 27.09375 37.691406 27.09375 37.808594 27.164062 37.878906 L 27.179688 37.894531 C 27.25 37.964844 27.25 38.078125 27.179688 38.148438 C 26.316406 39.007812 25.851562 40.273438 25.851562 41.589844 C 25.851562 42.027344 25.914062 42.457031 26.027344 42.867188 C 26.070312 43.011719 26.121094 43.148438 26.195312 43.285156 C 26.996094 44.84375 28.632812 45.90625 30.507812 45.90625 C 33.101562 45.90625 35.078125 43.890625 35.214844 41.351562 C 35.214844 41.265625 35.226562 41.195312 35.226562 41.109375 C 35.214844 38.453125 33.183594 36.300781 30.507812 36.300781 Z M 30.621094 44.089844 C 30.289062 44.121094 29.964844 44.101562 29.652344 44.039062 C 28.734375 43.828125 28.035156 43.152344 27.816406 42.230469 C 27.765625 42.011719 27.734375 41.769531 27.734375 41.539062 C 27.734375 40.753906 28.039062 40.042969 28.539062 39.511719 C 28.601562 39.445312 28.601562 39.339844 28.539062 39.273438 L 28.496094 39.226562 C 28.429688 39.152344 28.441406 39.039062 28.515625 38.972656 C 29.011719 38.542969 29.570312 38.28125 30.296875 38.28125 C 31.214844 38.28125 32.027344 38.59375 32.570312 39.253906 C 33.058594 39.835938 33.320312 40.625 33.226562 41.457031 C 33.101562 42.824219 31.996094 43.941406 30.621094 44.089844 Z M 41.664062 42.058594 L 41.664062 40.667969 "/>
</g>
</svg>
